Coordinates
version=1
nRows=17
nColumns=24
inDegrees=yes

Units are S.I. units (second, meters, Newtons, ...)
Angles are in degrees.

endheader
time	pelvis_tilt	pelvis_list	pelvis_rotation	pelvis_tx	pelvis_ty	pelvis_tz	hip_flexion_r	hip_adduction_r	hip_rotation_r	knee_angle_r	ankle_angle_r	subtalar_angle_r	mtp_angle_r	hip_flexion_l	hip_adduction_l	hip_rotation_l	knee_angle_l	ankle_angle_l	subtalar_angle_l	mtp_angle_l	lumbar_extension	lumbar_bending	lumbar_rotation
      5.46000000	     10.12580007	      4.22317216	     13.27344761	      1.54474398	      0.91925841	     -0.28577282	      8.92275871	     -6.23547920	     -7.86191320	     -0.15711656	     12.48130331	     -2.68827048	      0.00000000	    -27.61334514	      0.67952418	     16.97690541	     -9.78624399	     20.98742731	      5.83521370	      0.00000000	    -26.47989081	     -0.13074409	    -18.02514685
      5.46500000	     10.26039072	      3.93608865	     13.41237330	      1.55205774	      0.91865375	     -0.28552383	      8.80966366	     -5.84924206	     -7.66640084	     -0.41003306	     12.30267243	     -3.02307426	      0.00000000	    -27.84772623	      0.19627834	     16.67931054	    -10.42734334	     20.99230961	      6.46234048	      0.00000000	    -26.50389284	      0.27766112	    -17.99064573
      5.47000000	     10.56188495	      3.59507642	     13.46210098	      1.55941348	      0.91822814	     -0.28516049	      8.55614013	     -5.34655401	     -7.40176606	     -0.76494562	     12.14014154	     -3.39576666	      0.00000000	    -28.25287325	     -0.34397084	     16.23553191	    -11.05948730	     20.93826346	      7.11507918	      0.00000000	    -26.69856181	      0.75348631	    -17.87595330
      5.47500000	     10.66383889	      3.19969744	     13.62838561	      1.56686056	      0.91768995	     -0.28490838	      8.51665080	     -4.84690082	     -7.30402143	     -1.23553705	     12.02031492	     -3.71716801	      0.00000000	    -28.38481041	     -0.93071859	     15.88942286	    -11.79527915	     20.87534164	      7.76296560	      0.00000000	    -26.63604628	      1.26791508	    -17.81113503
      5.48000000	     10.79532600	      2.74683285	     13.75975328	      1.57435903	      0.91720552	     -0.28458627	      8.47833964	     -4.27066093	     -7.14833864	     -1.80938567	     11.90400185	     -4.04376660	      0.00000000	    -28.52736692	     -1.56704139	     15.49720307	    -12.54805407	     20.79160071	      8.46449729	      0.00000000	    -26.58731484	      1.83168371	    -17.69248913
      5.48500000	     11.09831581	      2.26648524	     13.77928860	      1.58189396	      0.91689712	     -0.28407906	      8.28658935	     -3.59463469	     -6.88416360	     -2.44995799	     11.78781492	     -4.45312462	      0.00000000	    -28.84863707	     -2.22813839	     14.89501174	    -13.30367577	     20.63034958	      9.22456598	      0.00000000	    -26.72620395	      2.42422566	    -17.50123239
      5.49000000	     11.30144369	      1.73587734	     13.88061553	      1.58950771	      0.91654979	     -0.28364967	      8.20022424	     -2.89807841	     -6.75525881	     -3.16117571	     11.70442681	     -4.79047621	      0.00000000	    -29.01314224	     -2.94400312	     14.37325338	    -14.13788511	     20.45326807	      9.97105810	      0.00000000	    -26.72385349	      3.06368674	    -17.32166253
      5.49500000	     11.40865011	      1.15869553	     14.01401828	      1.59721586	      0.91616610	     -0.28326008	      8.22298628	     -2.17959819	     -6.71532454	     -3.93760910	     11.62667083	     -5.04929242	      0.00000000	    -29.03811551	     -3.68851265	     13.89647707	    -15.02846882	     20.21302369	     10.65996793	      0.00000000	    -26.58471237	      3.73261920	    -17.14265295
      5.50000000	     11.68690400	      0.56833423	     14.02400462	      1.60490472	      0.91593662	     -0.28263256	      8.08973524	     -1.37139562	     -6.49205211	     -4.75394901	     11.53251548	     -5.44852590	      0.00000000	    -29.23950994	     -4.44240655	     13.20601020	    -15.93513025	     19.93811961	     11.48639326	      0.00000000	    -26.65304261	      4.40649949	    -16.89365065
      5.50500000	     11.86754962	     -0.04978558	     14.10634784	      1.61266377	      0.91567430	     -0.28207845	      8.04768300	     -0.56723342	     -6.41580247	     -5.59936611	     11.47329726	     -5.73044294	      0.00000000	    -29.28482545	     -5.22689228	     12.59638978	    -16.92405888	     19.61539505	     12.26706092	      0.00000000	    -26.58680011	      5.10339185	    -16.68408750
      5.51000000	     11.95671202	     -0.69731291	     14.22458366	      1.62046754	      0.91536613	     -0.28160879	      8.10065337	      0.23361042	     -6.42682324	     -6.47612231	     11.45244650	     -5.87798524	      0.00000000	    -29.18428731	     -6.02063763	     12.07357941	    -17.99122543	     19.25706955	     12.95397343	      0.00000000	    -26.39812166	      5.83212009	    -16.49086805
      5.51500000	     12.08624944	     -1.34650877	     14.29425986	      1.62830568	      0.91512833	     -0.28097702	      8.10915363	      1.06817247	     -6.41065478	     -7.35784788	     11.42329290	     -6.11265043	      0.00000000	    -29.10531391	     -6.81971467	     11.43951149	    -19.09470345	     18.82489409	     13.76858599	      0.00000000	    -26.25501639	      6.53229798	    -16.29553878
      5.52000000	     12.21902566	     -2.00247665	     14.36257263	      1.63614281	      0.91493145	     -0.28033179	      8.10493062	      1.91316258	     -6.38968178	     -8.23799591	     11.40213368	     -6.31266248	      0.00000000	    -28.99279685	     -7.62152913	     10.80976412	    -20.25520945	     18.34311856	     14.50837682	      0.00000000	    -26.11682353	      7.23642588	    -16.08261176
      5.52500000	     12.34561155	     -2.65178150	     14.42602944	      1.64398369	      0.91477450	     -0.27964842	      8.09250639	      2.75470751	     -6.39451641	     -9.10641099	     11.40191509	     -6.49067311	      0.00000000	    -28.83737943	     -8.41508745	     10.18927266	    -21.47110238	     17.79548328	     15.23006047	      0.00000000	    -25.97237727	      7.92455447	    -15.88024940
      5.53000000	     12.46275508	     -3.29952439	     14.49149115	      1.65183161	      0.91465010	     -0.27895340	      8.07218338	      3.59497071	     -6.41429927	     -9.95272757	     11.42953997	     -6.65138173	      0.00000000	    -28.63342073	     -9.20524845	      9.59109914	    -22.74158438	     17.19263783	     15.91426742	      0.00000000	    -25.81718253	      8.60666327	    -15.68472866
      5.53500000	     12.61169400	     -3.94372031	     14.54031108	      1.65965861	      0.91458568	     -0.27816389	      8.00422292	      4.45662672	     -6.37220828	    -10.77275752	     11.44421490	     -6.93483961	      0.00000000	    -28.43155131	     -9.99848092	      8.97696475	    -24.05262818	     16.55819229	     16.57904725	      0.00000000	    -25.70552044	      9.27524306	    -15.49104079
      5.54000000	     12.68704702	     -4.57393224	     14.62398112	      1.66749106	      0.91451064	     -0.27750529	      7.98292570	      5.26252598	     -6.47739931	    -11.55668084	     11.56734321	     -6.94472942	      0.00000000	    -28.09658544	    -10.76424570	      8.47009186	    -25.43547137	     15.86162082	     17.12958569	      0.00000000	    -25.50103712	      9.93629279	    -15.33086988
